<?xml version="1.0" encoding="UTF-8" standalone="no"?><svg xmlns="http://www.w3.org/2000/svg" xmlns:xlink="http://www.w3.org/1999/xlink" contentScriptType="application/ecmascript" contentStyleType="text/css" height="493px" preserveAspectRatio="none" style="width:316px;height:493px;" version="1.1" viewBox="0 0 316 493" width="316px" zoomAndPan="magnify"><defs><filter height="300%" id="feybzbh7o14h9" width="300%" x="-1" y="-1"><feGaussianBlur result="blurOut" stdDeviation="2.0"/><feColorMatrix in="blurOut" result="blurOut2" type="matrix" values="0 0 0 0 0 0 0 0 0 0 0 0 0 0 0 0 0 0 .4 0"/><feOffset dx="4.0" dy="4.0" in="blurOut2" result="blurOut3"/><feBlend in="SourceGraphic" in2="blurOut3" mode="normal"/></filter></defs><g><!--class Box--><rect fill="#FEFECE" filter="url(#feybzbh7o14h9)" height="301.2188" id="Box" style="stroke: #A80036; stroke-width: 1.5;" width="299" x="6" y="8"/><ellipse cx="140.75" cy="24" fill="#ADD1B2" rx="11" ry="11" style="stroke: #A80036; stroke-width: 1.0;"/><path d="M141.0938,28.2344 Q143.3125,28.2344 144.1719,26.0156 L146.3125,26.8281 Q145.625,28.5156 144.2891,29.3438 Q142.9531,30.1719 141.0938,30.1719 Q138.2813,30.1719 136.7422,28.5703 Q135.2031,26.9688 135.2031,24.0938 Q135.2031,21.2188 136.6875,19.6719 Q138.1719,18.125 140.9844,18.125 Q143.0469,18.125 144.3438,18.9531 Q145.6406,19.7813 146.1563,21.3906 L144,21.9688 Q143.7344,21.0938 142.9297,20.5781 Q142.125,20.0625 141.0469,20.0625 Q139.375,20.0625 138.5156,21.0859 Q137.6563,22.1094 137.6563,24.0938 Q137.6563,26.1094 138.5469,27.1719 Q139.4375,28.2344 141.0938,28.2344 Z "/><text fill="#000000" font-family="sans-serif" font-size="12" lengthAdjust="spacingAndGlyphs" textLength="21" x="161.25" y="27.1934">Box</text><line style="stroke: #A80036; stroke-width: 1.5;" x1="7" x2="304" y1="40" y2="40"/><text fill="#000000" font-family="sans-serif" font-size="11" lengthAdjust="spacingAndGlyphs" textLength="91" x="12" y="53.1577">Box(selector)</text><text fill="#000000" font-family="sans-serif" font-size="11" lengthAdjust="spacingAndGlyphs" textLength="252" x="12" y="82.0796">top_left(adjust_x, adjust_y) : Point</text><text fill="#000000" font-family="sans-serif" font-size="11" lengthAdjust="spacingAndGlyphs" textLength="266" x="12" y="94.5405">top_center(adjust_x, adjust_y) : Point</text><text fill="#000000" font-family="sans-serif" font-size="11" lengthAdjust="spacingAndGlyphs" textLength="259" x="12" y="107.0015">top_right(adjust_x, adjust_y) : Point</text><text fill="#000000" font-family="sans-serif" font-size="11" lengthAdjust="spacingAndGlyphs" textLength="273" x="12" y="119.4624">middle_left(adjust_x, adjust_y) : Point</text><text fill="#000000" font-family="sans-serif" font-size="11" lengthAdjust="spacingAndGlyphs" textLength="280" x="12" y="131.9233">middle_right(adjust_x, adjust_y) : Point</text><text fill="#000000" font-family="sans-serif" font-size="11" lengthAdjust="spacingAndGlyphs" textLength="273" x="12" y="144.3843">bottom_left(adjust_x, adjust_y) : Point</text><text fill="#000000" font-family="sans-serif" font-size="11" lengthAdjust="spacingAndGlyphs" textLength="287" x="12" y="156.8452">bottom_center(adjust_x, adjust_y) : Point</text><text fill="#000000" font-family="sans-serif" font-size="11" lengthAdjust="spacingAndGlyphs" textLength="280" x="12" y="169.3062">bottom_right(adjust_x, adjust_y) : Point</text><text fill="#000000" font-family="sans-serif" font-size="11" lengthAdjust="spacingAndGlyphs" textLength="238" x="12" y="181.7671">center(adjust_x, adjust_y) : Point</text><line style="stroke: #A80036; stroke-width: 1.0; stroke-dasharray: 1.0,2.0;" x1="7" x2="106.5" y1="66.6914" y2="66.6914"/><text fill="#000000" font-family="sans-serif" font-size="11" lengthAdjust="spacingAndGlyphs" textLength="98" x="106.5" y="69.1187">points methods</text><line style="stroke: #A80036; stroke-width: 1.0; stroke-dasharray: 1.0,2.0;" x1="204.5" x2="304" y1="66.6914" y2="66.6914"/><text fill="#000000" font-family="sans-serif" font-size="11" lengthAdjust="spacingAndGlyphs" textLength="140" x="12" y="210.689">width(self) : number</text><text fill="#000000" font-family="sans-serif" font-size="11" lengthAdjust="spacingAndGlyphs" textLength="147" x="12" y="223.1499">height(self) : number</text><text fill="#000000" font-family="sans-serif" font-size="11" lengthAdjust="spacingAndGlyphs" textLength="133" x="12" y="235.6108">left(self) : number</text><text fill="#000000" font-family="sans-serif" font-size="11" lengthAdjust="spacingAndGlyphs" textLength="140" x="12" y="248.0718">right(self) : number</text><text fill="#000000" font-family="sans-serif" font-size="11" lengthAdjust="spacingAndGlyphs" textLength="126" x="12" y="260.5327">top(self) : number</text><text fill="#000000" font-family="sans-serif" font-size="11" lengthAdjust="spacingAndGlyphs" textLength="147" x="12" y="272.9937">bottom(self) : number</text><line style="stroke: #A80036; stroke-width: 1.0; stroke-dasharray: 1.0,2.0;" x1="7" x2="113.5" y1="195.3008" y2="195.3008"/><text fill="#000000" font-family="sans-serif" font-size="11" lengthAdjust="spacingAndGlyphs" textLength="84" x="113.5" y="197.728">size methods</text><line style="stroke: #A80036; stroke-width: 1.0; stroke-dasharray: 1.0,2.0;" x1="197.5" x2="304" y1="195.3008" y2="195.3008"/><text fill="#000000" font-family="sans-serif" font-size="11" lengthAdjust="spacingAndGlyphs" textLength="133" x="12" y="301.9155">get_box(self) : Box</text><line style="stroke: #A80036; stroke-width: 1.0; stroke-dasharray: 1.0,2.0;" x1="7" x2="96" y1="286.5273" y2="286.5273"/><text fill="#000000" font-family="sans-serif" font-size="11" lengthAdjust="spacingAndGlyphs" textLength="119" x="96" y="288.9546">box sizes refresh</text><line style="stroke: #A80036; stroke-width: 1.0; stroke-dasharray: 1.0,2.0;" x1="215" x2="304" y1="286.5273" y2="286.5273"/><!--class Point--><rect fill="#FEFECE" filter="url(#feybzbh7o14h9)" height="97.8438" id="Point" style="stroke: #A80036; stroke-width: 1.5;" width="222" x="44.5" y="385"/><ellipse cx="133.75" cy="401" fill="#ADD1B2" rx="11" ry="11" style="stroke: #A80036; stroke-width: 1.0;"/><path d="M134.0938,405.2344 Q136.3125,405.2344 137.1719,403.0156 L139.3125,403.8281 Q138.625,405.5156 137.2891,406.3438 Q135.9531,407.1719 134.0938,407.1719 Q131.2813,407.1719 129.7422,405.5703 Q128.2031,403.9688 128.2031,401.0938 Q128.2031,398.2188 129.6875,396.6719 Q131.1719,395.125 133.9844,395.125 Q136.0469,395.125 137.3438,395.9531 Q138.6406,396.7813 139.1563,398.3906 L137,398.9688 Q136.7344,398.0938 135.9297,397.5781 Q135.125,397.0625 134.0469,397.0625 Q132.375,397.0625 131.5156,398.0859 Q130.6563,399.1094 130.6563,401.0938 Q130.6563,403.1094 131.5469,404.1719 Q132.4375,405.2344 134.0938,405.2344 Z "/><text fill="#000000" font-family="sans-serif" font-size="12" lengthAdjust="spacingAndGlyphs" textLength="35" x="154.25" y="404.1934">Point</text><line style="stroke: #A80036; stroke-width: 1.5;" x1="45.5" x2="265.5" y1="417" y2="417"/><ellipse cx="55.5" cy="428.7305" fill="none" rx="3" ry="3" style="stroke: #038048; stroke-width: 1.0;"/><text fill="#000000" font-family="sans-serif" font-size="11" lengthAdjust="spacingAndGlyphs" textLength="70" x="64.5" y="430.1577">x : number</text><ellipse cx="55.5" cy="441.1914" fill="none" rx="3" ry="3" style="stroke: #038048; stroke-width: 1.0;"/><text fill="#000000" font-family="sans-serif" font-size="11" lengthAdjust="spacingAndGlyphs" textLength="70" x="64.5" y="442.6187">y : number</text><line style="stroke: #A80036; stroke-width: 1.5;" x1="45.5" x2="265.5" y1="449.9219" y2="449.9219"/><ellipse cx="55.5" cy="461.6523" fill="#84BE84" rx="3" ry="3" style="stroke: #038048; stroke-width: 1.0;"/><text fill="#000000" font-family="sans-serif" font-size="11" lengthAdjust="spacingAndGlyphs" textLength="196" x="64.5" y="463.0796">adjust_x(x : number) : Point</text><ellipse cx="55.5" cy="474.1133" fill="#84BE84" rx="3" ry="3" style="stroke: #038048; stroke-width: 1.0;"/><text fill="#000000" font-family="sans-serif" font-size="11" lengthAdjust="spacingAndGlyphs" textLength="196" x="64.5" y="475.5405">adjust_y(y : number) : Point</text><!--link Box to Point--><path d="M155.5,309.1472 C155.5,334.3932 155.5,359.0562 155.5,379.7043 " fill="none" id="Box-Point" style="stroke: #A80036; stroke-width: 1.0; stroke-dasharray: 7.0,7.0;"/><polygon fill="#A80036" points="155.5,384.8653,159.5,375.8653,155.5,379.8653,151.5,375.8653,155.5,384.8653" style="stroke: #A80036; stroke-width: 1.0;"/><text fill="#000000" font-family="sans-serif" font-size="13" lengthAdjust="spacingAndGlyphs" textLength="48" x="156.5" y="350.8228">«uses»</text><!--
@startuml
class Box {
    Box(selector)
    .. points methods ..
    top_left(adjust_x, adjust_y) : Point
    top_center(adjust_x, adjust_y) : Point
    top_right(adjust_x, adjust_y) : Point
    middle_left(adjust_x, adjust_y) : Point
    middle_right(adjust_x, adjust_y) : Point
    bottom_left(adjust_x, adjust_y) : Point
    bottom_center(adjust_x, adjust_y) : Point
    bottom_right(adjust_x, adjust_y) : Point
    center(adjust_x, adjust_y) : Point
    .. size methods ..
    width(self) : number
    height(self) : number
    left(self) : number
    right(self) : number
    top(self) : number
    bottom(self) : number
    .. box sizes refresh ..
    get_box(self) : Box
}

class Point {
    + x : number
    + y : number
    + adjust_x(x : number) : Point
    + adjust_y(y : number) : Point
}

Box ..> Point : <<uses>>
@enduml

PlantUML version 1.2018.01(Sun Jan 28 18:08:22 GMT 2018)
(APACHE source distribution)
Java Runtime: OpenJDK Runtime Environment
JVM: OpenJDK 64-Bit Server VM
Java Version: 1.8.0_171-b11
Operating System: Linux
OS Version: 4.4.0-130-generic
Default Encoding: UTF-8
Language: en
Country: US
--></g></svg>