<?xml version="1.0" encoding="UTF-8" standalone="no"?><svg xmlns="http://www.w3.org/2000/svg" xmlns:xlink="http://www.w3.org/1999/xlink" contentScriptType="application/ecmascript" contentStyleType="text/css" height="116px" preserveAspectRatio="none" style="width:239px;height:116px;" version="1.1" viewBox="0 0 239 116" width="239px" zoomAndPan="magnify"><defs><filter height="300%" id="f1ay6ko56aryov" width="300%" x="-1" y="-1"><feGaussianBlur result="blurOut" stdDeviation="2.0"/><feColorMatrix in="blurOut" result="blurOut2" type="matrix" values="0 0 0 0 0 0 0 0 0 0 0 0 0 0 0 0 0 0 .4 0"/><feOffset dx="4.0" dy="4.0" in="blurOut2" result="blurOut3"/><feBlend in="SourceGraphic" in2="blurOut3" mode="normal"/></filter></defs><g><!--class Point--><rect fill="#FEFECE" filter="url(#f1ay6ko56aryov)" height="97.8438" id="Point" style="stroke: #A80036; stroke-width: 1.5;" width="222" x="6" y="8"/><ellipse cx="95.25" cy="24" fill="#ADD1B2" rx="11" ry="11" style="stroke: #A80036; stroke-width: 1.0;"/><path d="M95.5938,28.2344 Q97.8125,28.2344 98.6719,26.0156 L100.8125,26.8281 Q100.125,28.5156 98.7891,29.3438 Q97.4531,30.1719 95.5938,30.1719 Q92.7813,30.1719 91.2422,28.5703 Q89.7031,26.9688 89.7031,24.0938 Q89.7031,21.2188 91.1875,19.6719 Q92.6719,18.125 95.4844,18.125 Q97.5469,18.125 98.8438,18.9531 Q100.1406,19.7813 100.6563,21.3906 L98.5,21.9688 Q98.2344,21.0938 97.4297,20.5781 Q96.625,20.0625 95.5469,20.0625 Q93.875,20.0625 93.0156,21.0859 Q92.1563,22.1094 92.1563,24.0938 Q92.1563,26.1094 93.0469,27.1719 Q93.9375,28.2344 95.5938,28.2344 Z "/><text fill="#000000" font-family="sans-serif" font-size="12" lengthAdjust="spacingAndGlyphs" textLength="35" x="115.75" y="27.1934">Point</text><line style="stroke: #A80036; stroke-width: 1.5;" x1="7" x2="227" y1="40" y2="40"/><ellipse cx="17" cy="51.7305" fill="none" rx="3" ry="3" style="stroke: #038048; stroke-width: 1.0;"/><text fill="#000000" font-family="sans-serif" font-size="11" lengthAdjust="spacingAndGlyphs" textLength="70" x="26" y="53.1577">x : number</text><ellipse cx="17" cy="64.1914" fill="none" rx="3" ry="3" style="stroke: #038048; stroke-width: 1.0;"/><text fill="#000000" font-family="sans-serif" font-size="11" lengthAdjust="spacingAndGlyphs" textLength="70" x="26" y="65.6187">y : number</text><line style="stroke: #A80036; stroke-width: 1.5;" x1="7" x2="227" y1="72.9219" y2="72.9219"/><ellipse cx="17" cy="84.6523" fill="#84BE84" rx="3" ry="3" style="stroke: #038048; stroke-width: 1.0;"/><text fill="#000000" font-family="sans-serif" font-size="11" lengthAdjust="spacingAndGlyphs" textLength="196" x="26" y="86.0796">adjust_x(x : number) : Point</text><ellipse cx="17" cy="97.1133" fill="#84BE84" rx="3" ry="3" style="stroke: #038048; stroke-width: 1.0;"/><text fill="#000000" font-family="sans-serif" font-size="11" lengthAdjust="spacingAndGlyphs" textLength="196" x="26" y="98.5405">adjust_y(y : number) : Point</text><!--
@startuml
class Point {
    + x : number
    + y : number
    + adjust_x(x : number) : Point
    + adjust_y(y : number) : Point
}
@enduml

PlantUML version 1.2018.01(Sun Jan 28 18:08:22 GMT 2018)
(APACHE source distribution)
Java Runtime: OpenJDK Runtime Environment
JVM: OpenJDK 64-Bit Server VM
Java Version: 1.8.0_171-b11
Operating System: Linux
OS Version: 4.4.0-130-generic
Default Encoding: UTF-8
Language: en
Country: US
--></g></svg>