<?xml version="1.0" encoding="UTF-8" standalone="no"?><svg xmlns="http://www.w3.org/2000/svg" xmlns:xlink="http://www.w3.org/1999/xlink" contentScriptType="application/ecmascript" contentStyleType="text/css" height="175px" preserveAspectRatio="none" style="width:468px;height:175px;" version="1.1" viewBox="0 0 468 175" width="468px" zoomAndPan="magnify"><defs><filter height="300%" id="fdknvqvoykw5x" width="300%" x="-1" y="-1"><feGaussianBlur result="blurOut" stdDeviation="2.0"/><feColorMatrix in="blurOut" result="blurOut2" type="matrix" values="0 0 0 0 0 0 0 0 0 0 0 0 0 0 0 0 0 0 .4 0"/><feOffset dx="4.0" dy="4.0" in="blurOut2" result="blurOut3"/><feBlend in="SourceGraphic" in2="blurOut3" mode="normal"/></filter></defs><g><!--class AbstractSelector--><rect fill="#FEFECE" filter="url(#fdknvqvoykw5x)" height="48" id="AbstractSelector" style="stroke: #A80036; stroke-width: 1.5;" width="144" x="115.5" y="8"/><ellipse cx="130.5" cy="24" fill="#ADD1B2" rx="11" ry="11" style="stroke: #A80036; stroke-width: 1.0;"/><path d="M130.8438,28.2344 Q133.0625,28.2344 133.9219,26.0156 L136.0625,26.8281 Q135.375,28.5156 134.0391,29.3438 Q132.7031,30.1719 130.8438,30.1719 Q128.0313,30.1719 126.4922,28.5703 Q124.9531,26.9688 124.9531,24.0938 Q124.9531,21.2188 126.4375,19.6719 Q127.9219,18.125 130.7344,18.125 Q132.7969,18.125 134.0938,18.9531 Q135.3906,19.7813 135.9063,21.3906 L133.75,21.9688 Q133.4844,21.0938 132.6797,20.5781 Q131.875,20.0625 130.7969,20.0625 Q129.125,20.0625 128.2656,21.0859 Q127.4063,22.1094 127.4063,24.0938 Q127.4063,26.1094 128.2969,27.1719 Q129.1875,28.2344 130.8438,28.2344 Z "/><text fill="#000000" font-family="sans-serif" font-size="12" lengthAdjust="spacingAndGlyphs" textLength="112" x="144.5" y="27.1934">AbstractSelector</text><line style="stroke: #A80036; stroke-width: 1.5;" x1="116.5" x2="258.5" y1="40" y2="40"/><line style="stroke: #A80036; stroke-width: 1.5;" x1="116.5" x2="258.5" y1="48" y2="48"/><!--class Css--><rect fill="#FEFECE" filter="url(#fdknvqvoykw5x)" height="48" id="Css" style="stroke: #A80036; stroke-width: 1.5;" width="53" x="6" y="116"/><ellipse cx="21" cy="132" fill="#ADD1B2" rx="11" ry="11" style="stroke: #A80036; stroke-width: 1.0;"/><path d="M21.3438,136.2344 Q23.5625,136.2344 24.4219,134.0156 L26.5625,134.8281 Q25.875,136.5156 24.5391,137.3438 Q23.2031,138.1719 21.3438,138.1719 Q18.5313,138.1719 16.9922,136.5703 Q15.4531,134.9688 15.4531,132.0938 Q15.4531,129.2188 16.9375,127.6719 Q18.4219,126.125 21.2344,126.125 Q23.2969,126.125 24.5938,126.9531 Q25.8906,127.7813 26.4063,129.3906 L24.25,129.9688 Q23.9844,129.0938 23.1797,128.5781 Q22.375,128.0625 21.2969,128.0625 Q19.625,128.0625 18.7656,129.0859 Q17.9063,130.1094 17.9063,132.0938 Q17.9063,134.1094 18.7969,135.1719 Q19.6875,136.2344 21.3438,136.2344 Z "/><text fill="#000000" font-family="sans-serif" font-size="12" lengthAdjust="spacingAndGlyphs" textLength="21" x="35" y="135.1934">Css</text><line style="stroke: #A80036; stroke-width: 1.5;" x1="7" x2="58" y1="148" y2="148"/><line style="stroke: #A80036; stroke-width: 1.5;" x1="7" x2="58" y1="156" y2="156"/><!--class XPath--><rect fill="#FEFECE" filter="url(#fdknvqvoykw5x)" height="48" id="XPath" style="stroke: #A80036; stroke-width: 1.5;" width="67" x="94" y="116"/><ellipse cx="109" cy="132" fill="#ADD1B2" rx="11" ry="11" style="stroke: #A80036; stroke-width: 1.0;"/><path d="M109.3438,136.2344 Q111.5625,136.2344 112.4219,134.0156 L114.5625,134.8281 Q113.875,136.5156 112.5391,137.3438 Q111.2031,138.1719 109.3438,138.1719 Q106.5313,138.1719 104.9922,136.5703 Q103.4531,134.9688 103.4531,132.0938 Q103.4531,129.2188 104.9375,127.6719 Q106.4219,126.125 109.2344,126.125 Q111.2969,126.125 112.5938,126.9531 Q113.8906,127.7813 114.4063,129.3906 L112.25,129.9688 Q111.9844,129.0938 111.1797,128.5781 Q110.375,128.0625 109.2969,128.0625 Q107.625,128.0625 106.7656,129.0859 Q105.9063,130.1094 105.9063,132.0938 Q105.9063,134.1094 106.7969,135.1719 Q107.6875,136.2344 109.3438,136.2344 Z "/><text fill="#000000" font-family="sans-serif" font-size="12" lengthAdjust="spacingAndGlyphs" textLength="35" x="123" y="135.1934">XPath</text><line style="stroke: #A80036; stroke-width: 1.5;" x1="95" x2="160" y1="148" y2="148"/><line style="stroke: #A80036; stroke-width: 1.5;" x1="95" x2="160" y1="156" y2="156"/><!--class JsSelector--><rect fill="#FEFECE" filter="url(#fdknvqvoykw5x)" height="48" id="JsSelector" style="stroke: #A80036; stroke-width: 1.5;" width="102" x="196.5" y="116"/><ellipse cx="211.5" cy="132" fill="#ADD1B2" rx="11" ry="11" style="stroke: #A80036; stroke-width: 1.0;"/><path d="M211.8438,136.2344 Q214.0625,136.2344 214.9219,134.0156 L217.0625,134.8281 Q216.375,136.5156 215.0391,137.3438 Q213.7031,138.1719 211.8438,138.1719 Q209.0313,138.1719 207.4922,136.5703 Q205.9531,134.9688 205.9531,132.0938 Q205.9531,129.2188 207.4375,127.6719 Q208.9219,126.125 211.7344,126.125 Q213.7969,126.125 215.0938,126.9531 Q216.3906,127.7813 216.9063,129.3906 L214.75,129.9688 Q214.4844,129.0938 213.6797,128.5781 Q212.875,128.0625 211.7969,128.0625 Q210.125,128.0625 209.2656,129.0859 Q208.4063,130.1094 208.4063,132.0938 Q208.4063,134.1094 209.2969,135.1719 Q210.1875,136.2344 211.8438,136.2344 Z "/><text fill="#000000" font-family="sans-serif" font-size="12" lengthAdjust="spacingAndGlyphs" textLength="70" x="225.5" y="135.1934">JsSelector</text><line style="stroke: #A80036; stroke-width: 1.5;" x1="197.5" x2="297.5" y1="148" y2="148"/><line style="stroke: #A80036; stroke-width: 1.5;" x1="197.5" x2="297.5" y1="156" y2="156"/><!--class AnyOfSelector--><rect fill="#FEFECE" filter="url(#fdknvqvoykw5x)" height="48" id="AnyOfSelector" style="stroke: #A80036; stroke-width: 1.5;" width="123" x="334" y="116"/><ellipse cx="349" cy="132" fill="#ADD1B2" rx="11" ry="11" style="stroke: #A80036; stroke-width: 1.0;"/><path d="M349.3438,136.2344 Q351.5625,136.2344 352.4219,134.0156 L354.5625,134.8281 Q353.875,136.5156 352.5391,137.3438 Q351.2031,138.1719 349.3438,138.1719 Q346.5313,138.1719 344.9922,136.5703 Q343.4531,134.9688 343.4531,132.0938 Q343.4531,129.2188 344.9375,127.6719 Q346.4219,126.125 349.2344,126.125 Q351.2969,126.125 352.5938,126.9531 Q353.8906,127.7813 354.4063,129.3906 L352.25,129.9688 Q351.9844,129.0938 351.1797,128.5781 Q350.375,128.0625 349.2969,128.0625 Q347.625,128.0625 346.7656,129.0859 Q345.9063,130.1094 345.9063,132.0938 Q345.9063,134.1094 346.7969,135.1719 Q347.6875,136.2344 349.3438,136.2344 Z "/><text fill="#000000" font-family="sans-serif" font-size="12" lengthAdjust="spacingAndGlyphs" textLength="91" x="363" y="135.1934">AnyOfSelector</text><line style="stroke: #A80036; stroke-width: 1.5;" x1="335" x2="456" y1="148" y2="148"/><line style="stroke: #A80036; stroke-width: 1.5;" x1="335" x2="456" y1="156" y2="156"/><!--link AbstractSelector to Css--><path d="M136.2206,67.7302 C110.5718,85.6016 80.5795,106.4994 59.463,121.2129 " fill="none" id="AbstractSelector-Css" style="stroke: #A80036; stroke-width: 1.0;"/><polygon fill="none" points="132.3037,61.9277,152.715,56.2373,140.3073,73.4144,132.3037,61.9277" style="stroke: #A80036; stroke-width: 1.0;"/><!--link AbstractSelector to XPath--><path d="M164.2303,73.8854 C156.3349,88.0972 147.7836,103.4895 140.9202,115.8436 " fill="none" id="AbstractSelector-XPath" style="stroke: #A80036; stroke-width: 1.0;"/><polygon fill="none" points="158.2028,70.3209,174.0348,56.2373,170.441,77.12,158.2028,70.3209" style="stroke: #A80036; stroke-width: 1.0;"/><!--link AbstractSelector to JsSelector--><path d="M210.7697,73.8854 C218.6651,88.0972 227.2164,103.4895 234.0798,115.8436 " fill="none" id="AbstractSelector-JsSelector" style="stroke: #A80036; stroke-width: 1.0;"/><polygon fill="none" points="204.559,77.12,200.9652,56.2373,216.7972,70.3209,204.559,77.12" style="stroke: #A80036; stroke-width: 1.0;"/><!--link AbstractSelector to AnyOfSelector--><path d="M251.7139,65.3418 C283.2463,81.7144 320.5246,101.0705 349.2215,115.9708 " fill="none" id="AbstractSelector-AnyOfSelector" style="stroke: #A80036; stroke-width: 1.0;"/><polygon fill="none" points="248.4446,71.5317,233.9204,56.1029,254.896,59.1068,248.4446,71.5317" style="stroke: #A80036; stroke-width: 1.0;"/><!--
@startuml
class AbstractSelector
class Css
class XPath
class JsSelector
class AnyOfSelector

AbstractSelector <|- - Css
AbstractSelector <|- - XPath
AbstractSelector <|- - JsSelector
AbstractSelector <|- - AnyOfSelector
@enduml

PlantUML version 1.2018.01(Sun Jan 28 18:08:22 GMT 2018)
(APACHE source distribution)
Java Runtime: OpenJDK Runtime Environment
JVM: OpenJDK 64-Bit Server VM
Java Version: 1.8.0_171-b11
Operating System: Linux
OS Version: 4.4.0-130-generic
Default Encoding: UTF-8
Language: en
Country: US
--></g></svg>