<?xml version="1.0" encoding="UTF-8" standalone="no"?>
<!-- Created with Inkscape (http://www.inkscape.org/) -->

<svg
   xmlns:dc="http://purl.org/dc/elements/1.1/"
   xmlns:cc="http://creativecommons.org/ns#"
   xmlns:rdf="http://www.w3.org/1999/02/22-rdf-syntax-ns#"
   xmlns:svg="http://www.w3.org/2000/svg"
   xmlns="http://www.w3.org/2000/svg"
   xmlns:sodipodi="http://sodipodi.sourceforge.net/DTD/sodipodi-0.dtd"
   xmlns:inkscape="http://www.inkscape.org/namespaces/inkscape"
   width="80mm"
   height="80mm"
   viewBox="0 0 80 80"
   version="1.1"
   id="svg93"
   inkscape:version="0.92.4 (f8dce91, 2019-08-02)"
   sodipodi:docname="logo-onlysvg.svg">
  <defs
     id="defs87" />
  <sodipodi:namedview
     id="base"
     pagecolor="#ffffff"
     bordercolor="#666666"
     borderopacity="1.0"
     inkscape:pageopacity="0.0"
     inkscape:pageshadow="2"
     inkscape:zoom="0.35"
     inkscape:cx="-95.714286"
     inkscape:cy="560"
     inkscape:document-units="mm"
     inkscape:current-layer="layer1"
     showgrid="false"
     inkscape:window-width="1853"
     inkscape:window-height="1025"
     inkscape:window-x="67"
     inkscape:window-y="27"
     inkscape:window-maximized="1" />
  <metadata
     id="metadata90">
    <rdf:RDF>
      <cc:Work
         rdf:about="">
        <dc:format>image/svg+xml</dc:format>
        <dc:type
           rdf:resource="http://purl.org/dc/dcmitype/StillImage" />
        <dc:title></dc:title>
      </cc:Work>
    </rdf:RDF>
  </metadata>
  <g
     inkscape:label="Layer 1"
     inkscape:groupmode="layer"
     id="layer1"
     transform="translate(0,-217)">
    <g
       id="g12"
       transform="matrix(0.33072917,0,0,-0.33072917,37.918553,257.39444)">
      <path
         d="M -0.11875,1.0375 -85.930085,53.651247 -85.9,-50.45 l 85.78125,-52.52384 -0.0289214,61.959992 -48.8835786,29.973223 -0.1,-21.1 30.499443,-18.612742 -0.03284,-18.108578 -48.792638,29.908754 0.0085,56.970958 67.330035,-41.283392 z"
         style="fill:#006837;fill-opacity:1;fill-rule:nonzero;stroke:none"
         id="path14"
         inkscape:connector-curvature="0"
         sodipodi:nodetypes="ccccccccccccc" />
    </g>
    <g
       id="g16"
       transform="matrix(0.33072917,0,0,-0.33072917,40.068293,258.38663)">
      <path
         d="M 0,0 92.3625,56.36875 92.414214,33.765254 18.487689,-11.275305 18.45625,-70.0375 92.364214,-24.970536 92.36875,-47.75625 0,-104.25 Z"
         style="fill:#39b54a;fill-opacity:1;fill-rule:nonzero;stroke:none"
         id="path18"
         inkscape:connector-curvature="0"
         sodipodi:nodetypes="ccccccccc" />
    </g>
    <g
       id="g20"
       transform="matrix(0.33072917,0,0,-0.33072917,70.164643,240.03116)">
      <path
         d="M 1.365625,0.865625 -91.075,57.53125 -183.43126,1.153125 l 18.46922,-11.333941 73.938465,45.079052 73.908928,-45.307961 z"
         style="fill:#006837;fill-opacity:1;fill-rule:nonzero;stroke:none"
         id="path22"
         inkscape:connector-curvature="0"
         sodipodi:nodetypes="ccccccc" />
    </g>
    <g
       id="g24"
       transform="matrix(0.33072917,0,0,-0.33072917,49.494073,266.90291)">
      <path
         d="M -3.284375,-1.871875 63.861181,39.133883 63.8625,16.48125 -3.2438261,-24.470921 Z"
         style="fill:#39b54a;fill-opacity:1;fill-rule:nonzero;stroke:none"
         id="path26"
         inkscape:connector-curvature="0"
         sodipodi:nodetypes="ccccc" />
    </g>
  </g>
</svg>
