<?xml version="1.0" encoding="UTF-8" standalone="no"?><svg xmlns="http://www.w3.org/2000/svg" xmlns:xlink="http://www.w3.org/1999/xlink" contentScriptType="application/ecmascript" contentStyleType="text/css" height="403px" preserveAspectRatio="none" style="width:720px;height:403px;" version="1.1" viewBox="0 0 720 403" width="720px" zoomAndPan="magnify"><defs><filter height="300%" id="fd9yc2d8d8s7e" width="300%" x="-1" y="-1"><feGaussianBlur result="blurOut" stdDeviation="2.0"/><feColorMatrix in="blurOut" result="blurOut2" type="matrix" values="0 0 0 0 0 0 0 0 0 0 0 0 0 0 0 0 0 0 .4 0"/><feOffset dx="4.0" dy="4.0" in="blurOut2" result="blurOut3"/><feBlend in="SourceGraphic" in2="blurOut3" mode="normal"/></filter></defs><g><!--class AbstractSelector--><rect fill="#FEFECE" filter="url(#fd9yc2d8d8s7e)" height="214.1802" id="AbstractSelector" style="stroke: #A80036; stroke-width: 1.5;" width="341" x="183" y="8"/><ellipse cx="293.25" cy="24" fill="#ADD1B2" rx="11" ry="11" style="stroke: #A80036; stroke-width: 1.0;"/><path d="M293.5938,28.2344 Q295.8125,28.2344 296.6719,26.0156 L298.8125,26.8281 Q298.125,28.5156 296.7891,29.3438 Q295.4531,30.1719 293.5938,30.1719 Q290.7813,30.1719 289.2422,28.5703 Q287.7031,26.9688 287.7031,24.0938 Q287.7031,21.2188 289.1875,19.6719 Q290.6719,18.125 293.4844,18.125 Q295.5469,18.125 296.8438,18.9531 Q298.1406,19.7813 298.6563,21.3906 L296.5,21.9688 Q296.2344,21.0938 295.4297,20.5781 Q294.625,20.0625 293.5469,20.0625 Q291.875,20.0625 291.0156,21.0859 Q290.1563,22.1094 290.1563,24.0938 Q290.1563,26.1094 291.0469,27.1719 Q291.9375,28.2344 293.5938,28.2344 Z "/><text fill="#000000" font-family="sans-serif" font-size="12" lengthAdjust="spacingAndGlyphs" textLength="112" x="313.75" y="27.1934">AbstractSelector</text><line style="stroke: #A80036; stroke-width: 1.5;" x1="184" x2="523" y1="40" y2="40"/><ellipse cx="194" cy="68.2854" fill="#84BE84" rx="3" ry="3" style="stroke: #038048; stroke-width: 1.0;"/><text fill="#000000" font-family="sans-serif" font-size="11" font-style="italic" lengthAdjust="spacingAndGlyphs" textLength="126" x="203" y="70.7305">List&lt;string&gt; get_selectors()</text><line style="stroke: #A80036; stroke-width: 1.0;" x1="184" x2="287" y1="54.2305" y2="54.2305"/><text fill="#000000" font-family="sans-serif" font-size="11" lengthAdjust="spacingAndGlyphs" textLength="133" x="287" y="56.6577">method to implement</text><line style="stroke: #A80036; stroke-width: 1.0;" x1="420" x2="523" y1="54.2305" y2="54.2305"/><ellipse cx="194" cy="97.3013" fill="#84BE84" rx="3" ry="3" style="stroke: #038048; stroke-width: 1.0;"/><text fill="#000000" font-family="sans-serif" font-size="11" lengthAdjust="spacingAndGlyphs" textLength="294" x="203" y="98.7285">PositionalFilterSelector left_of(selector)</text><ellipse cx="194" cy="109.7622" fill="#84BE84" rx="3" ry="3" style="stroke: #038048; stroke-width: 1.0;"/><text fill="#000000" font-family="sans-serif" font-size="11" lengthAdjust="spacingAndGlyphs" textLength="301" x="203" y="111.1895">PositionalFilterSelector right_of(selector)</text><ellipse cx="194" cy="122.2231" fill="#84BE84" rx="3" ry="3" style="stroke: #038048; stroke-width: 1.0;"/><text fill="#000000" font-family="sans-serif" font-size="11" lengthAdjust="spacingAndGlyphs" textLength="280" x="203" y="123.6504">PositionalFilterSelector below(selector)</text><ellipse cx="194" cy="134.6841" fill="#84BE84" rx="3" ry="3" style="stroke: #038048; stroke-width: 1.0;"/><text fill="#000000" font-family="sans-serif" font-size="11" lengthAdjust="spacingAndGlyphs" textLength="280" x="203" y="136.1113">PositionalFilterSelector above(selector)</text><line style="stroke: #A80036; stroke-width: 1.0;" x1="184" x2="283.5" y1="83.3403" y2="83.3403"/><text fill="#000000" font-family="sans-serif" font-size="11" lengthAdjust="spacingAndGlyphs" textLength="140" x="283.5" y="85.7676">positional filtering</text><line style="stroke: #A80036; stroke-width: 1.0;" x1="423.5" x2="523" y1="83.3403" y2="83.3403"/><ellipse cx="194" cy="163.606" fill="#84BE84" rx="3" ry="3" style="stroke: #038048; stroke-width: 1.0;"/><text fill="#000000" font-family="sans-serif" font-size="11" lengthAdjust="spacingAndGlyphs" textLength="259" x="203" y="165.0332">InsideFilterSelector inside(selector)</text><ellipse cx="194" cy="176.0669" fill="#84BE84" rx="3" ry="3" style="stroke: #038048; stroke-width: 1.0;"/><text fill="#000000" font-family="sans-serif" font-size="11" lengthAdjust="spacingAndGlyphs" textLength="266" x="203" y="177.4941">InsideFilterSelector outside(selector)</text><ellipse cx="194" cy="188.5278" fill="#84BE84" rx="3" ry="3" style="stroke: #038048; stroke-width: 1.0;"/><text fill="#000000" font-family="sans-serif" font-size="11" lengthAdjust="spacingAndGlyphs" textLength="287" x="203" y="189.9551">InsideFilterSelector containing(selector)</text><ellipse cx="194" cy="200.9888" fill="#84BE84" rx="3" ry="3" style="stroke: #038048; stroke-width: 1.0;"/><text fill="#000000" font-family="sans-serif" font-size="11" lengthAdjust="spacingAndGlyphs" textLength="315" x="203" y="202.416">InsideFilterSelector containing_all(selector)</text><ellipse cx="194" cy="213.4497" fill="#84BE84" rx="3" ry="3" style="stroke: #038048; stroke-width: 1.0;"/><text fill="#000000" font-family="sans-serif" font-size="11" lengthAdjust="spacingAndGlyphs" textLength="273" x="203" y="214.877">InsideFilterSelector without_children()</text><line style="stroke: #A80036; stroke-width: 1.0;" x1="184" x2="276.5" y1="149.645" y2="149.645"/><text fill="#000000" font-family="sans-serif" font-size="11" lengthAdjust="spacingAndGlyphs" textLength="154" x="276.5" y="152.0723">parent/child filtering</text><line style="stroke: #A80036; stroke-width: 1.0;" x1="430.5" x2="523" y1="149.645" y2="149.645"/><!--class PositionalFilterSelector--><rect fill="#FEFECE" filter="url(#fd9yc2d8d8s7e)" height="97.8438" id="PositionalFilterSelector" style="stroke: #A80036; stroke-width: 1.5;" width="327" x="6" y="288"/><ellipse cx="81.25" cy="304" fill="#ADD1B2" rx="11" ry="11" style="stroke: #A80036; stroke-width: 1.0;"/><path d="M81.5938,308.2344 Q83.8125,308.2344 84.6719,306.0156 L86.8125,306.8281 Q86.125,308.5156 84.7891,309.3438 Q83.4531,310.1719 81.5938,310.1719 Q78.7813,310.1719 77.2422,308.5703 Q75.7031,306.9688 75.7031,304.0938 Q75.7031,301.2188 77.1875,299.6719 Q78.6719,298.125 81.4844,298.125 Q83.5469,298.125 84.8438,298.9531 Q86.1406,299.7813 86.6563,301.3906 L84.5,301.9688 Q84.2344,301.0938 83.4297,300.5781 Q82.625,300.0625 81.5469,300.0625 Q79.875,300.0625 79.0156,301.0859 Q78.1563,302.1094 78.1563,304.0938 Q78.1563,306.1094 79.0469,307.1719 Q79.9375,308.2344 81.5938,308.2344 Z "/><text fill="#000000" font-family="sans-serif" font-size="12" lengthAdjust="spacingAndGlyphs" textLength="168" x="101.75" y="307.1934">PositionalFilterSelector</text><line style="stroke: #A80036; stroke-width: 1.5;" x1="7" x2="332" y1="320" y2="320"/><line style="stroke: #A80036; stroke-width: 1.5;" x1="7" x2="332" y1="328" y2="328"/><ellipse cx="17" cy="339.7305" fill="#84BE84" rx="3" ry="3" style="stroke: #038048; stroke-width: 1.0;"/><text fill="#000000" font-family="sans-serif" font-size="11" lengthAdjust="spacingAndGlyphs" textLength="294" x="26" y="341.1577">PositionalFilterSelector left_of(selector)</text><ellipse cx="17" cy="352.1914" fill="#84BE84" rx="3" ry="3" style="stroke: #038048; stroke-width: 1.0;"/><text fill="#000000" font-family="sans-serif" font-size="11" lengthAdjust="spacingAndGlyphs" textLength="301" x="26" y="353.6187">PositionalFilterSelector right_of(selector)</text><ellipse cx="17" cy="364.6523" fill="#84BE84" rx="3" ry="3" style="stroke: #038048; stroke-width: 1.0;"/><text fill="#000000" font-family="sans-serif" font-size="11" lengthAdjust="spacingAndGlyphs" textLength="280" x="26" y="366.0796">PositionalFilterSelector below(selector)</text><ellipse cx="17" cy="377.1133" fill="#84BE84" rx="3" ry="3" style="stroke: #038048; stroke-width: 1.0;"/><text fill="#000000" font-family="sans-serif" font-size="11" lengthAdjust="spacingAndGlyphs" textLength="280" x="26" y="378.5405">PositionalFilterSelector above(selector)</text><!--class InsideFilterSelector--><rect fill="#FEFECE" filter="url(#fd9yc2d8d8s7e)" height="110.3047" id="InsideFilterSelector" style="stroke: #A80036; stroke-width: 1.5;" width="341" x="368" y="282"/><ellipse cx="464.25" cy="298" fill="#ADD1B2" rx="11" ry="11" style="stroke: #A80036; stroke-width: 1.0;"/><path d="M464.5938,302.2344 Q466.8125,302.2344 467.6719,300.0156 L469.8125,300.8281 Q469.125,302.5156 467.7891,303.3438 Q466.4531,304.1719 464.5938,304.1719 Q461.7813,304.1719 460.2422,302.5703 Q458.7031,300.9688 458.7031,298.0938 Q458.7031,295.2188 460.1875,293.6719 Q461.6719,292.125 464.4844,292.125 Q466.5469,292.125 467.8438,292.9531 Q469.1406,293.7813 469.6563,295.3906 L467.5,295.9688 Q467.2344,295.0938 466.4297,294.5781 Q465.625,294.0625 464.5469,294.0625 Q462.875,294.0625 462.0156,295.0859 Q461.1563,296.1094 461.1563,298.0938 Q461.1563,300.1094 462.0469,301.1719 Q462.9375,302.2344 464.5938,302.2344 Z "/><text fill="#000000" font-family="sans-serif" font-size="12" lengthAdjust="spacingAndGlyphs" textLength="140" x="484.75" y="301.1934">InsideFilterSelector</text><line style="stroke: #A80036; stroke-width: 1.5;" x1="369" x2="708" y1="314" y2="314"/><line style="stroke: #A80036; stroke-width: 1.5;" x1="369" x2="708" y1="322" y2="322"/><ellipse cx="379" cy="333.7305" fill="#84BE84" rx="3" ry="3" style="stroke: #038048; stroke-width: 1.0;"/><text fill="#000000" font-family="sans-serif" font-size="11" lengthAdjust="spacingAndGlyphs" textLength="259" x="388" y="335.1577">InsideFilterSelector inside(selector)</text><ellipse cx="379" cy="346.1914" fill="#84BE84" rx="3" ry="3" style="stroke: #038048; stroke-width: 1.0;"/><text fill="#000000" font-family="sans-serif" font-size="11" lengthAdjust="spacingAndGlyphs" textLength="266" x="388" y="347.6187">InsideFilterSelector outside(selector)</text><ellipse cx="379" cy="358.6523" fill="#84BE84" rx="3" ry="3" style="stroke: #038048; stroke-width: 1.0;"/><text fill="#000000" font-family="sans-serif" font-size="11" lengthAdjust="spacingAndGlyphs" textLength="287" x="388" y="360.0796">InsideFilterSelector containing(selector)</text><ellipse cx="379" cy="371.1133" fill="#84BE84" rx="3" ry="3" style="stroke: #038048; stroke-width: 1.0;"/><text fill="#000000" font-family="sans-serif" font-size="11" lengthAdjust="spacingAndGlyphs" textLength="315" x="388" y="372.5405">InsideFilterSelector containing_all(selector)</text><ellipse cx="379" cy="383.5742" fill="#84BE84" rx="3" ry="3" style="stroke: #038048; stroke-width: 1.0;"/><text fill="#000000" font-family="sans-serif" font-size="11" lengthAdjust="spacingAndGlyphs" textLength="273" x="388" y="385.0015">InsideFilterSelector without_children()</text><!--link AbstractSelector to PositionalFilterSelector--><path d="M251.7513,237.762 C237.033,255.5199 222.6513,272.8718 210.1359,287.9719 " fill="none" id="AbstractSelector-PositionalFilterSelector" style="stroke: #A80036; stroke-width: 1.0;"/><polygon fill="none" points="246.5816,233.0299,264.7338,222.0984,257.3605,241.9638,246.5816,233.0299" style="stroke: #A80036; stroke-width: 1.0;"/><!--link AbstractSelector to InsideFilterSelector--><path d="M455.6982,237.6378 C468.6006,253.1207 481.2486,268.2983 492.623,281.9476 " fill="none" id="AbstractSelector-InsideFilterSelector" style="stroke: #A80036; stroke-width: 1.0;"/><polygon fill="none" points="450.1748,241.9441,442.7486,222.0984,460.9299,232.9815,450.1748,241.9441" style="stroke: #A80036; stroke-width: 1.0;"/><!--
@startuml
class AbstractSelector {
    - - method to implement - -
    {abstract} +List<string> get_selectors()
    - - positional filtering - -
    +PositionalFilterSelector left_of(selector)
    +PositionalFilterSelector right_of(selector)
    +PositionalFilterSelector below(selector)
    +PositionalFilterSelector above(selector)
    - - parent/child filtering - -
    +InsideFilterSelector inside(selector)
    +InsideFilterSelector outside(selector)
    +InsideFilterSelector containing(selector)
    +InsideFilterSelector containing_all(selector)
    +InsideFilterSelector without_children()
}

class PositionalFilterSelector {
    +PositionalFilterSelector left_of(selector)
    +PositionalFilterSelector right_of(selector)
    +PositionalFilterSelector below(selector)
    +PositionalFilterSelector above(selector)
}

class InsideFilterSelector {
    +InsideFilterSelector inside(selector)
    +InsideFilterSelector outside(selector)
    +InsideFilterSelector containing(selector)
    +InsideFilterSelector containing_all(selector)
    +InsideFilterSelector without_children()
}

AbstractSelector <|- - PositionalFilterSelector
AbstractSelector <|- - InsideFilterSelector
@enduml

PlantUML version 1.2018.01(Sun Jan 28 18:08:22 GMT 2018)
(APACHE source distribution)
Java Runtime: OpenJDK Runtime Environment
JVM: OpenJDK 64-Bit Server VM
Java Version: 1.8.0_171-b11
Operating System: Linux
OS Version: 4.4.0-130-generic
Default Encoding: UTF-8
Language: en
Country: US
--></g></svg>