<?xml version="1.0" encoding="UTF-8" standalone="no"?><svg xmlns="http://www.w3.org/2000/svg" xmlns:xlink="http://www.w3.org/1999/xlink" contentScriptType="application/ecmascript" contentStyleType="text/css" height="299px" preserveAspectRatio="none" style="width:1425px;height:299px;" version="1.1" viewBox="0 0 1425 299" width="1425px" zoomAndPan="magnify"><defs><filter height="300%" id="f31qjq3vyjyry" width="300%" x="-1" y="-1"><feGaussianBlur result="blurOut" stdDeviation="2.0"/><feColorMatrix in="blurOut" result="blurOut2" type="matrix" values="0 0 0 0 0 0 0 0 0 0 0 0 0 0 0 0 0 0 .4 0"/><feOffset dx="4.0" dy="4.0" in="blurOut2" result="blurOut3"/><feBlend in="SourceGraphic" in2="blurOut3" mode="normal"/></filter></defs><g><!--class DeferredLocator--><rect fill="#FEFECE" filter="url(#f31qjq3vyjyry)" height="148.0635" id="DeferredLocator" style="stroke: #A80036; stroke-width: 1.5;" width="565" x="427.5" y="8"/><ellipse cx="653.25" cy="24" fill="#ADD1B2" rx="11" ry="11" style="stroke: #A80036; stroke-width: 1.0;"/><path d="M653.5938,28.2344 Q655.8125,28.2344 656.6719,26.0156 L658.8125,26.8281 Q658.125,28.5156 656.7891,29.3438 Q655.4531,30.1719 653.5938,30.1719 Q650.7813,30.1719 649.2422,28.5703 Q647.7031,26.9688 647.7031,24.0938 Q647.7031,21.2188 649.1875,19.6719 Q650.6719,18.125 653.4844,18.125 Q655.5469,18.125 656.8438,18.9531 Q658.1406,19.7813 658.6563,21.3906 L656.5,21.9688 Q656.2344,21.0938 655.4297,20.5781 Q654.625,20.0625 653.5469,20.0625 Q651.875,20.0625 651.0156,21.0859 Q650.1563,22.1094 650.1563,24.0938 Q650.1563,26.1094 651.0469,27.1719 Q651.9375,28.2344 653.5938,28.2344 Z "/><text fill="#000000" font-family="sans-serif" font-size="12" lengthAdjust="spacingAndGlyphs" textLength="105" x="673.75" y="27.1934">DeferredLocator</text><line style="stroke: #A80036; stroke-width: 1.5;" x1="428.5" x2="991.5" y1="40" y2="40"/><line style="stroke: #A80036; stroke-width: 1.5;" x1="428.5" x2="991.5" y1="48" y2="48"/><ellipse cx="438.5" cy="59.7305" fill="#84BE84" rx="3" ry="3" style="stroke: #038048; stroke-width: 1.0;"/><text fill="#000000" font-family="sans-serif" font-size="11" lengthAdjust="spacingAndGlyphs" textLength="203" x="447.5" y="61.1577">__call__() : list&lt;WebElement&gt;</text><ellipse cx="438.5" cy="72.1914" fill="#84BE84" rx="3" ry="3" style="stroke: #038048; stroke-width: 1.0;"/><text fill="#000000" font-family="sans-serif" font-size="11" lengthAdjust="spacingAndGlyphs" textLength="301" x="447.5" y="73.6187">element(only_visible: boolean) : WebElement</text><ellipse cx="438.5" cy="84.6523" fill="#84BE84" rx="3" ry="3" style="stroke: #038048; stroke-width: 1.0;"/><text fill="#000000" font-family="sans-serif" font-size="11" lengthAdjust="spacingAndGlyphs" textLength="539" x="447.5" y="86.0796">element_list(index: int, only_visible: boolean) : list&lt;WebElement&gt;|WebElement</text><ellipse cx="438.5" cy="97.1133" fill="#84BE84" rx="3" ry="3" style="stroke: #038048; stroke-width: 1.0;"/><text fill="#000000" font-family="sans-serif" font-size="11" lengthAdjust="spacingAndGlyphs" textLength="273" x="447.5" y="98.5405">exists(only_visible: boolean) : boolean</text><ellipse cx="438.5" cy="109.5742" fill="#84BE84" rx="3" ry="3" style="stroke: #038048; stroke-width: 1.0;"/><text fill="#000000" font-family="sans-serif" font-size="11" lengthAdjust="spacingAndGlyphs" textLength="301" x="447.5" y="111.0015">not_exists(only_visible: boolean) : boolean</text><ellipse cx="438.5" cy="122.0352" fill="#84BE84" rx="3" ry="3" style="stroke: #038048; stroke-width: 1.0;"/><text fill="#000000" font-family="sans-serif" font-size="11" lengthAdjust="spacingAndGlyphs" textLength="252" x="447.5" y="123.4624">text(only_visible: boolean) : string</text><polygon fill="#FFFF44" points="438.5,129.5901,442.5,133.5901,438.5,137.5901,434.5,133.5901" style="stroke: #B38D22; stroke-width: 1.0;"/><text fill="#000000" font-family="sans-serif" font-size="11" font-style="italic" lengthAdjust="spacingAndGlyphs" textLength="241" x="447.5" y="137.0352">_find_element(only_visible: boolean) : WebElement</text><polygon fill="#FFFF44" points="438.5,142.239,442.5,146.239,438.5,150.239,434.5,146.239" style="stroke: #B38D22; stroke-width: 1.0;"/><text fill="#000000" font-family="sans-serif" font-size="11" font-style="italic" lengthAdjust="spacingAndGlyphs" textLength="287" x="447.5" y="149.6841">_find_element_list(only_visible: boolean) : list&lt;WebElement&gt;</text><!--class CssLocator--><rect fill="#FEFECE" filter="url(#f31qjq3vyjyry)" height="72.9219" id="CssLocator" style="stroke: #A80036; stroke-width: 1.5;" width="446" x="6" y="216"/><ellipse cx="189.75" cy="232" fill="#ADD1B2" rx="11" ry="11" style="stroke: #A80036; stroke-width: 1.0;"/><path d="M190.0938,236.2344 Q192.3125,236.2344 193.1719,234.0156 L195.3125,234.8281 Q194.625,236.5156 193.2891,237.3438 Q191.9531,238.1719 190.0938,238.1719 Q187.2813,238.1719 185.7422,236.5703 Q184.2031,234.9688 184.2031,232.0938 Q184.2031,229.2188 185.6875,227.6719 Q187.1719,226.125 189.9844,226.125 Q192.0469,226.125 193.3438,226.9531 Q194.6406,227.7813 195.1563,229.3906 L193,229.9688 Q192.7344,229.0938 191.9297,228.5781 Q191.125,228.0625 190.0469,228.0625 Q188.375,228.0625 187.5156,229.0859 Q186.6563,230.1094 186.6563,232.0938 Q186.6563,234.1094 187.5469,235.1719 Q188.4375,236.2344 190.0938,236.2344 Z "/><text fill="#000000" font-family="sans-serif" font-size="12" lengthAdjust="spacingAndGlyphs" textLength="70" x="210.25" y="235.1934">CssLocator</text><line style="stroke: #A80036; stroke-width: 1.5;" x1="7" x2="451" y1="248" y2="248"/><line style="stroke: #A80036; stroke-width: 1.5;" x1="7" x2="451" y1="256" y2="256"/><polygon fill="#FFFF44" points="17,262.7305,21,266.7305,17,270.7305,13,266.7305" style="stroke: #B38D22; stroke-width: 1.0;"/><text fill="#000000" font-family="sans-serif" font-size="11" lengthAdjust="spacingAndGlyphs" textLength="343" x="26" y="269.1577">_find_element(only_visible: boolean) : WebElement</text><polygon fill="#FFFF44" points="17,275.1914,21,279.1914,17,283.1914,13,279.1914" style="stroke: #B38D22; stroke-width: 1.0;"/><text fill="#000000" font-family="sans-serif" font-size="11" lengthAdjust="spacingAndGlyphs" textLength="420" x="26" y="281.6187">_find_element_list(only_visible: boolean) : list&lt;WebElement&gt;</text><!--class XPathLocator--><rect fill="#FEFECE" filter="url(#f31qjq3vyjyry)" height="72.9219" id="XPathLocator" style="stroke: #A80036; stroke-width: 1.5;" width="446" x="487" y="216"/><ellipse cx="663.75" cy="232" fill="#ADD1B2" rx="11" ry="11" style="stroke: #A80036; stroke-width: 1.0;"/><path d="M664.0938,236.2344 Q666.3125,236.2344 667.1719,234.0156 L669.3125,234.8281 Q668.625,236.5156 667.2891,237.3438 Q665.9531,238.1719 664.0938,238.1719 Q661.2813,238.1719 659.7422,236.5703 Q658.2031,234.9688 658.2031,232.0938 Q658.2031,229.2188 659.6875,227.6719 Q661.1719,226.125 663.9844,226.125 Q666.0469,226.125 667.3438,226.9531 Q668.6406,227.7813 669.1563,229.3906 L667,229.9688 Q666.7344,229.0938 665.9297,228.5781 Q665.125,228.0625 664.0469,228.0625 Q662.375,228.0625 661.5156,229.0859 Q660.6563,230.1094 660.6563,232.0938 Q660.6563,234.1094 661.5469,235.1719 Q662.4375,236.2344 664.0938,236.2344 Z "/><text fill="#000000" font-family="sans-serif" font-size="12" lengthAdjust="spacingAndGlyphs" textLength="84" x="684.25" y="235.1934">XPathLocator</text><line style="stroke: #A80036; stroke-width: 1.5;" x1="488" x2="932" y1="248" y2="248"/><line style="stroke: #A80036; stroke-width: 1.5;" x1="488" x2="932" y1="256" y2="256"/><polygon fill="#FFFF44" points="498,262.7305,502,266.7305,498,270.7305,494,266.7305" style="stroke: #B38D22; stroke-width: 1.0;"/><text fill="#000000" font-family="sans-serif" font-size="11" lengthAdjust="spacingAndGlyphs" textLength="343" x="507" y="269.1577">_find_element(only_visible: boolean) : WebElement</text><polygon fill="#FFFF44" points="498,275.1914,502,279.1914,498,283.1914,494,279.1914" style="stroke: #B38D22; stroke-width: 1.0;"/><text fill="#000000" font-family="sans-serif" font-size="11" lengthAdjust="spacingAndGlyphs" textLength="420" x="507" y="281.6187">_find_element_list(only_visible: boolean) : list&lt;WebElement&gt;</text><!--class JsLocator--><rect fill="#FEFECE" filter="url(#f31qjq3vyjyry)" height="72.9219" id="JsLocator" style="stroke: #A80036; stroke-width: 1.5;" width="446" x="968" y="216"/><ellipse cx="1155.25" cy="232" fill="#ADD1B2" rx="11" ry="11" style="stroke: #A80036; stroke-width: 1.0;"/><path d="M1155.5938,236.2344 Q1157.8125,236.2344 1158.6719,234.0156 L1160.8125,234.8281 Q1160.125,236.5156 1158.7891,237.3438 Q1157.4531,238.1719 1155.5938,238.1719 Q1152.7813,238.1719 1151.2422,236.5703 Q1149.7031,234.9688 1149.7031,232.0938 Q1149.7031,229.2188 1151.1875,227.6719 Q1152.6719,226.125 1155.4844,226.125 Q1157.5469,226.125 1158.8438,226.9531 Q1160.1406,227.7813 1160.6563,229.3906 L1158.5,229.9688 Q1158.2344,229.0938 1157.4297,228.5781 Q1156.625,228.0625 1155.5469,228.0625 Q1153.875,228.0625 1153.0156,229.0859 Q1152.1563,230.1094 1152.1563,232.0938 Q1152.1563,234.1094 1153.0469,235.1719 Q1153.9375,236.2344 1155.5938,236.2344 Z "/><text fill="#000000" font-family="sans-serif" font-size="12" lengthAdjust="spacingAndGlyphs" textLength="63" x="1175.75" y="235.1934">JsLocator</text><line style="stroke: #A80036; stroke-width: 1.5;" x1="969" x2="1413" y1="248" y2="248"/><line style="stroke: #A80036; stroke-width: 1.5;" x1="969" x2="1413" y1="256" y2="256"/><polygon fill="#FFFF44" points="979,262.7305,983,266.7305,979,270.7305,975,266.7305" style="stroke: #B38D22; stroke-width: 1.0;"/><text fill="#000000" font-family="sans-serif" font-size="11" lengthAdjust="spacingAndGlyphs" textLength="343" x="988" y="269.1577">_find_element(only_visible: boolean) : WebElement</text><polygon fill="#FFFF44" points="979,275.1914,983,279.1914,979,283.1914,975,279.1914" style="stroke: #B38D22; stroke-width: 1.0;"/><text fill="#000000" font-family="sans-serif" font-size="11" lengthAdjust="spacingAndGlyphs" textLength="420" x="988" y="281.6187">_find_element_list(only_visible: boolean) : list&lt;WebElement&gt;</text><!--link DeferredLocator to CssLocator--><path d="M482.1806,162.7551 C429.5642,181.406 376.1362,200.3447 332.0078,215.9868 " fill="none" id="DeferredLocator-CssLocator" style="stroke: #A80036; stroke-width: 1.0;"/><polygon fill="none" points="479.9354,156.1243,501.1249,156.0399,484.6129,169.3198,479.9354,156.1243" style="stroke: #A80036; stroke-width: 1.0;"/><!--link DeferredLocator to XPathLocator--><path d="M710,176.712 C710,190.6058 710,204.1602 710,215.8744 " fill="none" id="DeferredLocator-XPathLocator" style="stroke: #A80036; stroke-width: 1.0;"/><polygon fill="none" points="703.0001,176.2878,710,156.2878,717.0001,176.2878,703.0001,176.2878" style="stroke: #A80036; stroke-width: 1.0;"/><!--link DeferredLocator to JsLocator--><path d="M937.8194,162.7551 C990.4358,181.406 1043.8638,200.3447 1087.9922,215.9868 " fill="none" id="DeferredLocator-JsLocator" style="stroke: #A80036; stroke-width: 1.0;"/><polygon fill="none" points="935.3871,169.3198,918.8751,156.0399,940.0646,156.1243,935.3871,169.3198" style="stroke: #A80036; stroke-width: 1.0;"/><!--
@startuml
class DeferredLocator {
    +__call__() : list<WebElement>
    +element(only_visible: boolean) : WebElement
    +element_list(index: int, only_visible: boolean) : list<WebElement>|WebElement
    +exists(only_visible: boolean) : boolean
    +not_exists(only_visible: boolean) : boolean
    +text(only_visible: boolean) : string
    {abstract} #_find_element(only_visible: boolean) : WebElement
    {abstract} #_find_element_list(only_visible: boolean) : list<WebElement>
}

class CssLocator {
    #_find_element(only_visible: boolean) : WebElement
    #_find_element_list(only_visible: boolean) : list<WebElement>
}

class XPathLocator {
    #_find_element(only_visible: boolean) : WebElement
    #_find_element_list(only_visible: boolean) : list<WebElement>
}

class JsLocator{
    #_find_element(only_visible: boolean) : WebElement
    #_find_element_list(only_visible: boolean) : list<WebElement>
}

DeferredLocator <|- - CssLocator
DeferredLocator <|- - XPathLocator
DeferredLocator <|- - JsLocator
@enduml

PlantUML version 1.2018.01(Sun Jan 28 18:08:22 GMT 2018)
(APACHE source distribution)
Java Runtime: OpenJDK Runtime Environment
JVM: OpenJDK 64-Bit Server VM
Java Version: 1.8.0_171-b11
Operating System: Linux
OS Version: 4.4.0-130-generic
Default Encoding: UTF-8
Language: en
Country: US
--></g></svg>