<?xml version="1.0" encoding="UTF-8" standalone="no"?><svg xmlns="http://www.w3.org/2000/svg" xmlns:xlink="http://www.w3.org/1999/xlink" contentScriptType="application/ecmascript" contentStyleType="text/css" height="191px" preserveAspectRatio="none" style="width:167px;height:191px;" version="1.1" viewBox="0 0 167 191" width="167px" zoomAndPan="magnify"><defs><filter height="300%" id="fv5t05m39wrhe" width="300%" x="-1" y="-1"><feGaussianBlur result="blurOut" stdDeviation="2.0"/><feColorMatrix in="blurOut" result="blurOut2" type="matrix" values="0 0 0 0 0 0 0 0 0 0 0 0 0 0 0 0 0 0 .4 0"/><feOffset dx="4.0" dy="4.0" in="blurOut2" result="blurOut3"/><feBlend in="SourceGraphic" in2="blurOut3" mode="normal"/></filter></defs><g><!--class GermaniumDriver--><rect fill="#FEFECE" filter="url(#fv5t05m39wrhe)" height="48" id="GermaniumDriver" style="stroke: #A80036; stroke-width: 1.5;" width="137" x="6" y="8"/><ellipse cx="21" cy="24" fill="#ADD1B2" rx="11" ry="11" style="stroke: #A80036; stroke-width: 1.0;"/><path d="M21.3438,28.2344 Q23.5625,28.2344 24.4219,26.0156 L26.5625,26.8281 Q25.875,28.5156 24.5391,29.3438 Q23.2031,30.1719 21.3438,30.1719 Q18.5313,30.1719 16.9922,28.5703 Q15.4531,26.9688 15.4531,24.0938 Q15.4531,21.2188 16.9375,19.6719 Q18.4219,18.125 21.2344,18.125 Q23.2969,18.125 24.5938,18.9531 Q25.8906,19.7813 26.4063,21.3906 L24.25,21.9688 Q23.9844,21.0938 23.1797,20.5781 Q22.375,20.0625 21.2969,20.0625 Q19.625,20.0625 18.7656,21.0859 Q17.9063,22.1094 17.9063,24.0938 Q17.9063,26.1094 18.7969,27.1719 Q19.6875,28.2344 21.3438,28.2344 Z "/><text fill="#000000" font-family="sans-serif" font-size="12" lengthAdjust="spacingAndGlyphs" textLength="105" x="35" y="27.1934">GermaniumDriver</text><line style="stroke: #A80036; stroke-width: 1.5;" x1="7" x2="142" y1="40" y2="40"/><line style="stroke: #A80036; stroke-width: 1.5;" x1="7" x2="142" y1="48" y2="48"/><!--class WebDriver--><rect fill="#FEFECE" filter="url(#fv5t05m39wrhe)" height="48" id="WebDriver" style="stroke: #A80036; stroke-width: 1.5;" width="95" x="27" y="132"/><ellipse cx="42" cy="148" fill="#ADD1B2" rx="11" ry="11" style="stroke: #A80036; stroke-width: 1.0;"/><path d="M42.3438,152.2344 Q44.5625,152.2344 45.4219,150.0156 L47.5625,150.8281 Q46.875,152.5156 45.5391,153.3438 Q44.2031,154.1719 42.3438,154.1719 Q39.5313,154.1719 37.9922,152.5703 Q36.4531,150.9688 36.4531,148.0938 Q36.4531,145.2188 37.9375,143.6719 Q39.4219,142.125 42.2344,142.125 Q44.2969,142.125 45.5938,142.9531 Q46.8906,143.7813 47.4063,145.3906 L45.25,145.9688 Q44.9844,145.0938 44.1797,144.5781 Q43.375,144.0625 42.2969,144.0625 Q40.625,144.0625 39.7656,145.0859 Q38.9063,146.1094 38.9063,148.0938 Q38.9063,150.1094 39.7969,151.1719 Q40.6875,152.2344 42.3438,152.2344 Z "/><text fill="#000000" font-family="sans-serif" font-size="12" lengthAdjust="spacingAndGlyphs" textLength="63" x="56" y="151.1934">WebDriver</text><line style="stroke: #A80036; stroke-width: 1.5;" x1="28" x2="121" y1="164" y2="164"/><line style="stroke: #A80036; stroke-width: 1.5;" x1="28" x2="121" y1="172" y2="172"/><!--link GermaniumDriver to WebDriver--><path d="M74.5,69.4274 C74.5,89.6863 74.5,114.1212 74.5,131.8582 " fill="none" id="GermaniumDriver-WebDriver" style="stroke: #A80036; stroke-width: 1.0;"/><polygon fill="#A80036" points="74.5,56.2028,70.5,62.2028,74.5,68.2028,78.5,62.2028,74.5,56.2028" style="stroke: #A80036; stroke-width: 1.0;"/><text fill="#000000" font-family="sans-serif" font-size="13" lengthAdjust="spacingAndGlyphs" textLength="80" x="75.5" y="97.8228">web_driver</text><text fill="#000000" font-family="sans-serif" font-size="13" lengthAdjust="spacingAndGlyphs" textLength="8" x="65.375" y="120.0245">1</text><!--
@startuml
class GermaniumDriver
class WebDriver

GermaniumDriver *- - "1" WebDriver : "web_driver"
@enduml

PlantUML version 1.2018.01(Sun Jan 28 18:08:22 GMT 2018)
(APACHE source distribution)
Java Runtime: OpenJDK Runtime Environment
JVM: OpenJDK 64-Bit Server VM
Java Version: 1.8.0_171-b11
Operating System: Linux
OS Version: 4.4.0-130-generic
Default Encoding: UTF-8
Language: en
Country: US
--></g></svg>